HIERARCHY
ROOT Hips
{
	OFFSET 0.000000 100.481300 0.000000
	CHANNELS 6 Xposition Yposition Zposition Xrotation Yrotation Zrotation
	JOINT Spine
	{
		OFFSET -0.279200 12.230698 -2.892100
		CHANNELS 3 Xrotation Yrotation Zrotation
		JOINT Spine1
		{
			OFFSET -0.325700 14.269203 -3.374200
			CHANNELS 3 Xrotation Yrotation Zrotation
			JOINT Spine2
			{
				OFFSET -0.372300 16.307602 -0.352600
				CHANNELS 3 Xrotation Yrotation Zrotation
				JOINT Neck
				{
					OFFSET -0.418800 17.814194 8.416900
					CHANNELS 3 Xrotation Yrotation Zrotation
					JOINT Head
					{
						OFFSET 0.000000 7.031097 3.806800
						CHANNELS 3 Xrotation Yrotation Zrotation
						JOINT HeadTop_End
						{
							OFFSET 0.000000 24.646606 12.978600
							CHANNELS 3 Xrotation Yrotation Zrotation
							End Site
							{
								OFFSET 0.000000 27.854965 0.000000
							}
						}
					}
				}
				JOINT LeftShoulder
				{
					OFFSET 16.952999 14.495407 -7.737500
					CHANNELS 3 Xrotation Yrotation Zrotation
					JOINT LeftArm
					{
						OFFSET 9.308998 -2.777710 0.208600
						CHANNELS 3 Xrotation Yrotation Zrotation
						JOINT LeftForeArm
						{
							OFFSET 29.972298 0.000000 0.000000
							CHANNELS 3 Xrotation Yrotation Zrotation
							JOINT LeftHand
							{
								OFFSET 26.026505 0.000000 0.000000
								CHANNELS 3 Xrotation Yrotation Zrotation
								JOINT LeftHandThumb1
								{
									OFFSET 12.240501 -7.147949 9.207150
									CHANNELS 3 Xrotation Yrotation Zrotation
									JOINT LeftHandThumb2
									{
										OFFSET 4.138618 -2.389435 2.389433
										CHANNELS 3 Xrotation Yrotation Zrotation
										JOINT LeftHandThumb3
										{
											OFFSET 2.726913 -1.574387 1.574386
											CHANNELS 3 Xrotation Yrotation Zrotation
											JOINT LeftHandThumb4
											{
												OFFSET 3.941010 -2.275345 2.275342
												CHANNELS 3 Xrotation Yrotation Zrotation
												End Site
												{
													OFFSET -0.005798 5.087799 0.009903
												}
											}
										}
									}
								}
								JOINT LeftHandIndex1
								{
									OFFSET 24.424698 -1.985611 5.953459
									CHANNELS 3 Xrotation Yrotation Zrotation
									JOINT LeftHandIndex2
									{
										OFFSET 6.426697 0.000000 0.000000
										CHANNELS 3 Xrotation Yrotation Zrotation
										JOINT LeftHandIndex3
										{
											OFFSET 5.337898 0.000000 0.000000
											CHANNELS 3 Xrotation Yrotation Zrotation
											JOINT LeftHandIndex4
											{
												OFFSET 4.409401 0.000000 0.000000
												CHANNELS 3 Xrotation Yrotation Zrotation
												End Site
												{
													OFFSET 0.000000 4.409363 0.014373
												}
											}
										}
									}
								}
								JOINT LeftHandMiddle1
								{
									OFFSET 23.810104 0.000000 0.000000
									CHANNELS 3 Xrotation Yrotation Zrotation
									JOINT LeftHandMiddle2
									{
										OFFSET 7.176498 0.000000 0.000000
										CHANNELS 3 Xrotation Yrotation Zrotation
										JOINT LeftHandMiddle3
										{
											OFFSET 6.774902 0.000000 0.000000
											CHANNELS 3 Xrotation Yrotation Zrotation
											JOINT LeftHandMiddle4
											{
												OFFSET 5.403328 0.000000 0.000000
												CHANNELS 3 Xrotation Yrotation Zrotation
												End Site
												{
													OFFSET -0.027702 5.403244 0.017414
												}
											}
										}
									}
								}
								JOINT LeftHandRing1
								{
									OFFSET 22.908401 -0.839279 -6.020567
									CHANNELS 3 Xrotation Yrotation Zrotation
									JOINT LeftHandRing2
									{
										OFFSET 6.337502 0.000000 0.000000
										CHANNELS 3 Xrotation Yrotation Zrotation
										JOINT LeftHandRing3
										{
											OFFSET 5.779297 0.000000 0.000000
											CHANNELS 3 Xrotation Yrotation Zrotation
											JOINT LeftHandRing4
											{
												OFFSET 4.965698 0.000000 0.000000
												CHANNELS 3 Xrotation Yrotation Zrotation
												End Site
												{
													OFFSET 0.000000 4.965668 0.016186
												}
											}
										}
									}
								}
								JOINT LeftHandPinky1
								{
									OFFSET 20.037003 -1.530319 -10.950146
									CHANNELS 3 Xrotation Yrotation Zrotation
									JOINT LeftHandPinky2
									{
										OFFSET 5.254700 0.000000 0.000000
										CHANNELS 3 Xrotation Yrotation Zrotation
										JOINT LeftHandPinky3
										{
											OFFSET 4.810204 0.000000 0.000000
											CHANNELS 3 Xrotation Yrotation Zrotation
											JOINT LeftHandPinky4
											{
												OFFSET 3.647202 0.000000 0.000000
												CHANNELS 3 Xrotation Yrotation Zrotation
												End Site
												{
													OFFSET 0.000000 3.647186 0.011889
												}
											}
										}
									}
								}
							}
						}
					}
				}
				JOINT RightShoulder
				{
					OFFSET -15.141001 14.495407 -7.737500
					CHANNELS 3 Xrotation Yrotation Zrotation
					JOINT RightArm
					{
						OFFSET -9.308998 -2.777710 0.208500
						CHANNELS 3 Xrotation Yrotation Zrotation
						JOINT RightForeArm
						{
							OFFSET -29.972300 0.000000 0.000000
							CHANNELS 3 Xrotation Yrotation Zrotation
							JOINT RightHand
							{
								OFFSET -26.026505 0.000000 0.000000
								CHANNELS 3 Xrotation Yrotation Zrotation
								JOINT RightHandThumb1
								{
									OFFSET -12.240601 -7.148026 9.207092
									CHANNELS 3 Xrotation Yrotation Zrotation
									JOINT RightHandThumb2
									{
										OFFSET -4.138618 -2.389435 2.389433
										CHANNELS 3 Xrotation Yrotation Zrotation
										JOINT RightHandThumb3
										{
											OFFSET -2.726974 -1.574417 1.574421
											CHANNELS 3 Xrotation Yrotation Zrotation
											JOINT RightHandThumb4
											{
												OFFSET -3.941010 -2.275345 2.275343
												CHANNELS 3 Xrotation Yrotation Zrotation
												End Site
												{
													OFFSET 0.005814 5.087799 0.009927
												}
											}
										}
									}
								}
								JOINT RightHandIndex1
								{
									OFFSET -24.424698 -1.985657 5.953444
									CHANNELS 3 Xrotation Yrotation Zrotation
									JOINT RightHandIndex2
									{
										OFFSET -6.426697 0.000000 0.000000
										CHANNELS 3 Xrotation Yrotation Zrotation
										JOINT RightHandIndex3
										{
											OFFSET -5.337898 0.000000 0.000000
											CHANNELS 3 Xrotation Yrotation Zrotation
											JOINT RightHandIndex4
											{
												OFFSET -4.409401 0.000000 0.000000
												CHANNELS 3 Xrotation Yrotation Zrotation
												End Site
												{
													OFFSET 0.000000 4.409363 0.014408
												}
											}
										}
									}
								}
								JOINT RightHandMiddle1
								{
									OFFSET -23.810097 0.000000 0.000000
									CHANNELS 3 Xrotation Yrotation Zrotation
									JOINT RightHandMiddle2
									{
										OFFSET -7.176498 0.000000 0.000000
										CHANNELS 3 Xrotation Yrotation Zrotation
										JOINT RightHandMiddle3
										{
											OFFSET -6.774902 0.000000 0.000000
											CHANNELS 3 Xrotation Yrotation Zrotation
											JOINT RightHandMiddle4
											{
												OFFSET -5.403328 0.000000 0.000000
												CHANNELS 3 Xrotation Yrotation Zrotation
												End Site
												{
													OFFSET 0.027702 5.403244 0.017457
												}
											}
										}
									}
								}
								JOINT RightHandRing1
								{
									OFFSET -22.908302 -0.839325 -6.020576
									CHANNELS 3 Xrotation Yrotation Zrotation
									JOINT RightHandRing2
									{
										OFFSET -6.337502 0.000000 0.000000
										CHANNELS 3 Xrotation Yrotation Zrotation
										JOINT RightHandRing3
										{
											OFFSET -5.779297 0.000000 0.000000
											CHANNELS 3 Xrotation Yrotation Zrotation
											JOINT RightHandRing4
											{
												OFFSET -4.965698 0.000000 0.000000
												CHANNELS 3 Xrotation Yrotation Zrotation
												End Site
												{
													OFFSET 0.000000 4.965668 0.016226
												}
											}
										}
									}
								}
								JOINT RightHandPinky1
								{
									OFFSET -20.037003 -1.530334 -10.950259
									CHANNELS 3 Xrotation Yrotation Zrotation
									JOINT RightHandPinky2
									{
										OFFSET -5.254700 0.000000 0.000000
										CHANNELS 3 Xrotation Yrotation Zrotation
										JOINT RightHandPinky3
										{
											OFFSET -4.810204 0.000000 0.000000
											CHANNELS 3 Xrotation Yrotation Zrotation
											JOINT RightHandPinky4
											{
												OFFSET -3.647202 0.000000 0.000000
												CHANNELS 3 Xrotation Yrotation Zrotation
												End Site
												{
													OFFSET 0.000000 3.647186 0.011917
												}
											}
										}
									}
								}
							}
						}
					}
				}
			}
		}
	}
	JOINT LeftUpLeg
	{
		OFFSET 15.427100 -6.655098 0.678600
		CHANNELS 3 Xrotation Yrotation Zrotation
		JOINT LeftLeg
		{
			OFFSET 4.081073 -39.591068 13.024000
			CHANNELS 3 Xrotation Yrotation Zrotation
			JOINT LeftFoot
			{
				OFFSET -4.081074 -37.707932 -15.979700
				CHANNELS 3 Xrotation Yrotation Zrotation
				JOINT LeftToeBase
				{
					OFFSET 5.346399 -15.068900 20.645000
					CHANNELS 3 Xrotation Yrotation Zrotation
					JOINT LeftToe_End
					{
						OFFSET 2.754700 0.931300 11.300900
						CHANNELS 3 Xrotation Yrotation Zrotation
						End Site
						{
							OFFSET 0.000000 11.669021 0.000000
						}
					}
				}
			}
		}
	}
	JOINT RightUpLeg
	{
		OFFSET -15.569500 -6.655098 0.678600
		CHANNELS 3 Xrotation Yrotation Zrotation
		JOINT RightLeg
		{
			OFFSET -4.081825 -39.591045 13.023800
			CHANNELS 3 Xrotation Yrotation Zrotation
			JOINT RightFoot
			{
				OFFSET 4.081824 -37.707954 -15.979600
				CHANNELS 3 Xrotation Yrotation Zrotation
				JOINT RightToeBase
				{
					OFFSET -5.346400 -15.068900 20.645000
					CHANNELS 3 Xrotation Yrotation Zrotation
					JOINT RightToe_End
					{
						OFFSET -2.754700 0.931300 11.300900
						CHANNELS 3 Xrotation Yrotation Zrotation
						End Site
						{
							OFFSET 0.000000 11.669021 0.000000
						}
					}
				}
			}
		}
	}
}
MOTION
Frames: 4
Frame Time: 0.033333
0.971561 25.789009 -3.064976 16.277529 -1.370027 -3.998181 17.278644 1.480060 1.602025 7.064760 0.736886 1.295014 7.055038 0.753561 1.335443 -23.328769 -0.763987 2.157871 -29.476480 3.527758 -3.384943 -0.000000 0.000000 0.000000 2.576922 10.021887 -10.255790 -87.574841 47.792756 3.113508 -0.000008 -130.006545 0.000003 -4.079478 -21.832607 83.137834 54.656349 -52.894826 9.282238 16.609193 45.483182 -7.480857 9.384205 60.569353 22.734604 0.000002 -0.000000 0.000000 -0.239944 1.588696 -77.549756 4.347675 5.655272 -75.086448 1.096843 3.414540 -35.607972 -0.000000 -0.000001 -0.000000 1.559027 7.415245 -78.043804 4.875868 5.769505 -80.389284 0.714091 2.804901 -28.561329 -0.000000 -0.000000 0.000004 0.690444 7.483076 -81.352764 3.746099 5.460527 -68.881105 0.943058 3.189244 -32.938386 -0.000000 -0.000000 -0.000000 1.898773 7.570846 -79.667559 1.040427 3.334501 -34.649533 2.884434 5.045480 -59.490517 -0.000000 0.000000 -0.000001 2.919488 -6.908835 15.014655 -91.688985 -35.817280 -2.995265 -0.000016 128.957141 0.000005 -14.287235 10.289617 -91.538209 34.985298 46.131866 6.588619 15.845093 -44.633073 -11.113698 -19.175251 -63.330620 -55.315120 0.000004 -0.000005 -0.000000 1.289447 -1.937096 69.588358 3.679217 -4.553553 77.865215 0.897689 -2.750704 36.142127 -0.000001 0.000001 -0.000004 -4.242666 -5.036188 77.203117 3.018183 -4.359854 69.373924 0.966515 -2.842452 37.552701 0.000000 -0.000001 0.000004 -5.246212 -3.758276 70.843815 3.110811 -4.393481 70.587608 0.431513 -1.959606 24.835109 -0.000000 -0.000000 0.000001 -2.789432 -2.789857 55.388811 1.253165 -3.180229 43.005361 1.565981 -3.485064 48.382212 0.000000 -0.000000 -0.000000 -118.243825 -17.449388 13.298993 131.321670 -0.228069 17.143280 -24.941643 8.824083 -24.876080 -0.000054 0.000000 -0.000033 0.000000 0.000000 0.000000 -117.993867 18.312097 -18.448276 126.237824 13.889352 -7.575541 -19.725474 -9.103531 19.624599 -1.844375 -0.000002 -0.000007 -0.000000 0.000001 0.000000 
0.867798 25.483482 -3.052227 15.308667 -1.360369 -3.993974 18.229158 1.481096 1.593382 7.289976 0.765279 1.324165 7.279531 0.786168 1.365916 -23.290902 -0.851002 2.275996 -30.173443 3.415054 -3.379140 -0.000000 0.000000 -0.000000 2.529916 9.945572 -9.927275 -87.274019 48.163024 3.013192 0.000001 -130.030819 0.000000 -3.955208 -21.840262 83.318445 54.990710 -52.724778 9.692099 16.609186 45.483179 -7.480849 9.384206 60.569353 22.734619 0.000004 0.000001 0.000001 -0.239642 1.482998 -77.268393 4.347675 5.655273 -75.086448 1.096842 3.414540 -35.607962 -0.000001 0.000000 -0.000000 1.514156 7.388921 -77.750434 4.876358 5.769594 -80.394188 0.714049 2.804836 -28.560453 -0.000000 -0.000001 0.000002 0.649261 7.454112 -81.059900 3.746720 5.460781 -68.887792 0.942994 3.189166 -32.937378 -0.000000 0.000000 0.000001 1.854986 7.547152 -79.373977 1.040724 3.334922 -34.654717 2.884339 5.045439 -59.489507 0.000000 -0.000001 -0.000001 2.903869 -6.682926 15.068051 -92.026806 -35.519849 -3.349711 -0.000002 128.970514 0.000010 -14.311731 10.056675 -91.496770 34.923068 46.160543 6.688967 15.845105 -44.633073 -11.113706 -19.175257 -63.330627 -55.315113 -0.000001 -0.000001 0.000001 1.302135 -1.951771 69.662151 3.679218 -4.553552 77.865208 0.897689 -2.750704 36.142127 -0.000001 0.000001 -0.000002 -4.224490 -5.050994 77.276576 3.018109 -4.359816 69.372865 0.966515 -2.842452 37.552704 0.000001 -0.000001 0.000000 -5.229525 -3.776187 70.916515 3.110747 -4.393466 70.586774 0.431514 -1.959605 24.835113 0.000000 0.000000 -0.000001 -2.775736 -2.809740 55.461447 1.253166 -3.180229 43.005367 1.565979 -3.485064 48.382208 0.000000 -0.000000 -0.000001 -117.491302 -3.963676 7.490713 132.249893 13.105752 25.068261 -28.264107 10.959338 -26.363984 -0.000047 0.000002 -0.000017 0.000000 -0.000001 -0.000000 -119.604399 8.781045 -12.412113 128.826971 4.151455 -14.223947 -21.326055 -10.534440 20.962638 -1.882910 0.000002 0.000009 0.000000 -0.000001 0.000000 
0.800025 25.328209 -3.087685 14.610864 -1.369747 -4.131483 19.067359 1.459635 1.658472 7.480208 0.777137 1.363707 7.469578 0.799649 1.405432 -23.234188 -0.959910 2.482105 -30.900834 3.320398 -3.236131 -0.000000 -0.000000 0.000000 2.492770 10.059711 -9.601701 -87.200588 48.420765 3.049428 -0.000007 -130.015561 0.000007 -4.009585 -21.837771 83.095344 55.301665 -52.556591 10.076565 16.609184 45.483176 -7.480861 9.384209 60.569353 22.734618 0.000001 0.000000 -0.000000 -0.241021 1.386514 -76.997351 4.347674 5.655273 -75.086448 1.096841 3.414539 -35.607969 0.000000 0.000000 -0.000001 1.469879 7.363020 -77.468409 4.876805 5.769643 -80.398696 0.714002 2.804753 -28.559618 -0.000000 0.000000 0.000001 0.608234 7.425733 -80.778359 3.747312 5.460993 -68.893864 0.942944 3.189071 -32.936395 -0.000000 0.000000 -0.000001 1.811560 7.523816 -79.091767 1.041000 3.335327 -34.659457 2.884255 5.045363 -59.488530 0.000000 0.000000 -0.000001 2.878304 -6.335951 15.139469 -92.205997 -35.201702 -3.895054 -0.000005 128.960843 0.000014 -14.462033 9.855099 -91.449328 34.893101 46.171119 6.734244 15.845096 -44.633077 -11.113708 -19.175259 -63.330627 -55.315113 0.000004 0.000002 0.000002 1.305893 -1.960339 69.694137 3.679218 -4.553554 77.865215 0.897689 -2.750703 36.142134 0.000000 0.000001 -0.000002 -4.217763 -5.057161 77.308609 3.018042 -4.359780 69.372073 0.966514 -2.842453 37.552708 -0.000000 0.000000 0.000002 -5.223127 -3.783686 70.948283 3.110682 -4.393429 70.585962 0.431514 -1.959606 24.835113 -0.000000 0.000000 -0.000002 -2.771529 -2.820583 55.492715 1.253165 -3.180229 43.005367 1.565982 -3.485065 48.382212 0.000001 -0.000000 0.000000 -123.126058 -58.672438 69.242743 108.233391 -44.278436 -22.776838 26.241285 -12.920223 -4.175458 -0.000063 -0.000012 -0.000039 0.000000 0.000000 0.000000 -119.668466 -0.400040 -7.907727 129.981655 -4.712357 -19.718276 -22.984785 -11.868482 21.889650 -1.882835 -0.000014 -0.000005 -0.000000 -0.000002 -0.000000 
0.769111 25.255997 -3.122440 14.271263 -1.387435 -4.316319 19.656082 1.439485 1.742631 7.605623 0.779832 1.395769 7.595118 0.801699 1.437074 -23.188479 -1.033091 2.652304 -31.346518 3.286699 -3.079575 0.000000 -0.000000 0.000000 2.471937 10.160541 -9.407633 -87.479144 48.477107 3.303953 -0.000005 -129.970208 -0.000003 -4.176994 -21.816130 82.524115 55.507028 -52.435594 10.335836 16.609196 45.483176 -7.480857 9.384195 60.569353 22.734614 -0.000001 0.000001 0.000000 -0.245839 1.324470 -76.808353 4.347673 5.655272 -75.086455 1.096842 3.414539 -35.607972 0.000000 0.000001 -0.000003 1.436172 7.344147 -77.272334 4.877107 5.769707 -80.401531 0.713976 2.804708 -28.559135 -0.000000 0.000000 0.000001 0.576385 7.405281 -80.582558 3.747683 5.461148 -68.897730 0.942911 3.189025 -32.935814 0.000000 0.000000 0.000003 1.778245 7.506787 -78.895529 1.041177 3.335580 -34.662472 2.884193 5.045331 -59.487956 -0.000000 0.000000 -0.000001 2.845981 -5.974298 15.160459 -92.223065 -35.011912 -4.490197 -0.000017 128.968329 0.000008 -14.655687 9.728385 -91.402800 34.892114 46.167595 6.733874 15.845096 -44.633077 -11.113705 -19.175247 -63.330620 -55.315117 -0.000002 -0.000001 0.000001 1.304569 -1.963113 69.691972 3.679217 -4.553554 77.865215 0.897690 -2.750704 36.142134 0.000002 0.000001 -0.000006 -4.218520 -5.056727 77.306690 3.018012 -4.359761 69.371643 0.966516 -2.842452 37.552698 -0.000001 0.000001 -0.000001 -5.223486 -3.783249 70.946384 3.110642 -4.393433 70.585470 0.431515 -1.959606 24.835109 0.000001 -0.000000 0.000001 -2.772881 -2.823181 55.490397 1.253165 -3.180228 43.005361 1.565981 -3.485064 48.382212 -0.000001 -0.000000 0.000000 -123.588899 -59.462097 69.625897 107.832923 -44.491244 -23.208284 27.600098 -13.196771 -4.051750 -0.000051 0.000004 -0.000026 0.000000 0.000000 -0.000000 -119.395914 -5.810096 -5.684225 130.204224 -9.712470 -22.745942 -23.882463 -12.561192 22.283774 -1.864890 -0.000014 0.000004 -0.000000 0.000000 0.000000 
